<?xml version="1.0" encoding="utf-8"?>
<!-- Generator: Adobe Illustrator 26.5.0, SVG Export Plug-In . SVG Version: 6.00 Build 0)  -->
<svg version="1.1" id="Layer_1" xmlns="http://www.w3.org/2000/svg" xmlns:xlink="http://www.w3.org/1999/xlink" x="0px" y="0px"
	 viewBox="0 0 500 500" style="enable-background:new 0 0 500 500;" xml:space="preserve">
<style type="text/css">
	.st0{font-family:'Roboto-Bold';}
	.st1{font-size:172.7173px;}
	.st2{fill:none;stroke:#000000;stroke-width:5;stroke-miterlimit:10;}
	.st3{stroke:#FFFFFF;stroke-width:0.5;stroke-miterlimit:10;}
</style>
<text transform="matrix(1 0 0 1 41.6694 218.3023)" class="st0 st1">BEAT</text>
<text transform="matrix(1 0 0 1 41.6704 371.0196)" class="st0 st1">L  CK</text>
<g>
	<g>
		<circle cx="177.5" cy="324.1" r="37.5"/>
		<circle class="st2" cx="177.7" cy="323.9" r="43.9"/>
	</g>
	<g>
		
			<ellipse transform="matrix(0.7071 -0.7071 0.7071 0.7071 -169.8188 214.3215)" class="st3" cx="173.8" cy="312.2" rx="4.3" ry="7.3"/>
		<path class="st3" d="M168.7,307.1L168.7,307.1c0.5-0.5-1.1-1.9-1.6-2.4l-61.4-62.5c-0.5-0.5-1.3-0.4-1.8,0.1v0
			c-0.5,0.5-0.6,1.3-0.1,1.8l62.3,61.6C166.6,306.2,168.2,307.6,168.7,307.1z"/>
	</g>
	<g>
		
			<ellipse transform="matrix(0.549 -0.8358 0.8358 0.549 -190.7886 283.4587)" class="st3" cx="167.3" cy="318.5" rx="4.3" ry="7.3"/>
		<path class="st3" d="M161.3,314.6L161.3,314.6c0.4-0.6-1.5-1.6-2-2l-72.8-48.8c-0.6-0.4-1.3-0.2-1.8,0.5l0,0
			c-0.4,0.6-0.3,1.4,0.3,1.8l73.5,47.7C159,314.1,160.9,315.2,161.3,314.6z"/>
	</g>
</g>
</svg>
